<?xml version="1.0" encoding="UTF-8"?>
<svg id="Layer_1" xmlns="http://www.w3.org/2000/svg" version="1.1" viewBox="0 0 24 24">
  <!-- Generator: Adobe Illustrator 29.5.1, SVG Export Plug-In . SVG Version: 2.1.0 Build 141)  -->
  <path d="M15,15.5h-7.8l-1.4,3.2c-.3.8-.5,1.4-.5,1.7s.1.6.4.8c.3.2.9.4,1.9.5v.5H1.4v-.5c.8-.1,1.4-.3,1.6-.6.5-.5,1.1-1.4,1.7-2.9L11.7,1.8h.5l7,16.7c.6,1.3,1.1,2.2,1.5,2.6.5.4,1.1.6,1.9.7v.5h-7.9v-.5c.8,0,1.3-.2,1.6-.4s.4-.5.4-.8-.2-1.1-.6-2.1l-1.2-2.9ZM14.6,14.4l-3.4-8.1-3.5,8.1h6.9Z"/>
</svg>