<?xml version="1.0" encoding="UTF-8"?>
<svg id="Layer_1" xmlns="http://www.w3.org/2000/svg" version="1.1" viewBox="0 0 24 24">
  <!-- Generator: Adobe Illustrator 29.5.1, SVG Export Plug-In . SVG Version: 2.1.0 Build 141)  -->
  <path d="M3.6,1.8h8.6v.5h-.4c-.6,0-1.1,0-1.3.2s-.4.3-.5.6-.2.8-.2,1.8v8.1c0,1.5.1,2.5.3,2.9s.6.9,1.1,1.2,1.2.5,1.9.5,1.7-.2,2.3-.6,1.1-1,1.4-1.7.5-1.9.5-3.7v-6.8c0-.7,0-1.3-.2-1.6s-.4-.5-.6-.7c-.4-.2-.9-.3-1.6-.3v-.5h5.7v.5h-.3c-.5,0-.9,0-1.2.3s-.5.5-.7.8c-.1.3-.2.7-.2,1.4v6.3c0,1.9-.1,3.4-.4,4.2s-.9,1.7-1.9,2.4-2.3,1.1-4.1,1.1-2.5-.2-3.3-.6c-1.1-.5-1.8-1.2-2.3-2s-.7-1.9-.7-3.3V4.7c0-1,0-1.5-.2-1.8s-.3-.4-.5-.6-.7-.2-1.4-.2v-.5Z"/>
  <path d="M3,22.2v-2.4h18.1v2.4H3Z"/>
</svg>