<?xml version="1.0" encoding="UTF-8"?>
<svg id="Layer_1" xmlns="http://www.w3.org/2000/svg" version="1.1" viewBox="0 0 24 24">
  <!-- Generator: Adobe Illustrator 29.5.1, SVG Export Plug-In . SVG Version: 2.1.0 Build 141)  -->
  <path d="M17.2,2v6.6h-.5c-.2-1.3-.5-2.3-.9-3s-1.1-1.4-1.9-1.8-1.7-.7-2.5-.7-1.8.3-2.4.9-1,1.3-1,2,.2,1.1.6,1.6c.6.7,2,1.7,4.2,2.8,1.8,1,3,1.7,3.7,2.2s1.2,1.1,1.5,1.8.5,1.4.5,2.2c0,1.5-.6,2.7-1.7,3.8s-2.6,1.6-4.3,1.6-1.1,0-1.6-.1c-.3,0-.9-.2-1.8-.5s-1.5-.4-1.7-.4-.4,0-.6.2-.2.4-.3.9h-.5v-6.6h.5c.2,1.4.6,2.4,1,3.1s1,1.3,1.9,1.7,1.8.7,2.8.7,2.1-.3,2.8-.9,1-1.4,1-2.2-.1-.9-.4-1.4-.7-.9-1.2-1.3c-.4-.3-1.4-.9-3-1.8s-2.8-1.7-3.5-2.2-1.2-1.2-1.6-1.8-.5-1.4-.5-2.2c0-1.4.5-2.6,1.6-3.6s2.4-1.5,4-1.5,2.1.2,3.2.7c.5.2.9.4,1.1.4s.4,0,.6-.2.3-.4.4-.9h.5Z"/>
  <path d="M3.9,13v-1.4h16.1v1.4H3.9Z"/>
</svg>