<?xml version="1.0" encoding="UTF-8"?>
<svg id="Layer_1" xmlns="http://www.w3.org/2000/svg" version="1.1" viewBox="0 0 24 24">
  <!-- Generator: Adobe Illustrator 29.5.1, SVG Export Plug-In . SVG Version: 2.1.0 Build 141)  -->
  <path d="M13.8,21.6l-.2.6H5.2l.2-.6c.8,0,1.4,0,1.7-.2.4-.2.8-.4,1-.7.3-.5.7-1.3,1-2.5l3.5-12.3c.3-1,.5-1.8.5-2.3s0-.5-.2-.7-.3-.3-.6-.4-.8-.1-1.6-.1l.2-.6h7.9l-.2.6c-.6,0-1.1,0-1.4.2-.5.2-.8.5-1,.9s-.5,1.2-.9,2.5l-3.5,12.3c-.3,1.1-.5,1.9-.5,2.2s0,.5.2.6.3.3.6.4.8.2,1.7.2Z"/>
</svg>