<?xml version="1.0" encoding="UTF-8"?>
<svg id="Layer_1" xmlns="http://www.w3.org/2000/svg" version="1.1" viewBox="0 0 24 24">
  <!-- Generator: Adobe Illustrator 29.5.1, SVG Export Plug-In . SVG Version: 2.1.0 Build 141)  -->
  <path d="M15.7,11.4c1.9.5,3.3,1,4.1,1.7,1.1.9,1.7,2.1,1.7,3.6s-.6,2.8-1.9,3.8c-1.5,1.2-3.7,1.8-6.6,1.8H2.5v-.6c.9,0,1.6,0,1.9-.3s.6-.4.7-.7c.1-.3.2-1,.2-2.1V5.3c0-1.1,0-1.8-.2-2.1-.1-.3-.4-.5-.7-.7-.3-.2-1-.3-1.9-.3v-.6h9.8c2.4,0,4,.2,5,.6s1.8,1,2.3,1.9c.6.8.8,1.7.8,2.7s-.4,1.9-1.1,2.6c-.7.8-2,1.4-3.8,1.8ZM10.2,12.2v7.3c0,.5.1,1,.4,1.2.3.3.7.4,1.2.4.8,0,1.6-.2,2.2-.5.7-.4,1.2-.9,1.6-1.6.4-.7.5-1.4.5-2.3s-.2-1.8-.7-2.6c-.4-.8-1.1-1.3-1.8-1.6-.8-.3-1.9-.4-3.5-.4ZM10.2,11c1.4,0,2.5-.2,3.2-.5.7-.3,1.2-.8,1.6-1.4.4-.6.5-1.3.5-2.2s-.2-1.7-.5-2.2c-.4-.6-.9-1-1.5-1.3-.7-.3-1.7-.4-3.2-.4v8.1Z"/>
</svg>