<?xml version="1.0" encoding="UTF-8"?>
<svg id="Layer_1" xmlns="http://www.w3.org/2000/svg" version="1.1" viewBox="0 0 500 500">
  <!-- Generator: Adobe Illustrator 29.5.1, SVG Export Plug-In . SVG Version: 2.1.0 Build 141)  -->
  <defs>
    <style>
      .st0 {
        fill: #121516;
      }

      .st1 {
        fill: #056cd2;
      }
    </style>
  </defs>
  <path class="st0" d="M211.52018,47.15461c.15627,1.04632.56174,1.99452.59553,3.08166.81924,26.3327,1.43573,58.21731-.0065,84.33161-1.47583,26.72282-13.70234,40.15882-26.49533,61.74295-22.1606,37.38891-44.7524,74.66781-66.38889,112.35024-14.24141,24.80302-32.99116,53.30771-29.24536,83.17522,4.10715,32.74897,29.63891,55.46392,61.9382,59.10662,67.36487,1.05607,134.99286,1.05929,202.35345.00112,49.90079-7.78023,74.71565-51.59655,54.75365-98.73177-9.75069-23.02379-24.62379-44.50028-36.47075-66.47242-4.39374-13.261,12.617-23.35655,21.56628-12.51775,6.86344,8.31254,15.05731,24.94005,20.55882,34.87293,11.34707,20.48706,25.11484,43.4518,26.51032,67.38429,3.40997,58.48187-37.89181,100.0262-95.30898,102.70878-61.00738-1.99998-123.62469,2.57788-184.44569.00365-76.13754-3.2225-118.16825-70.42593-86.71749-140.50627,3.84653-8.57106,8.83725-17.38329,13.39804-25.63046,20.10914-36.36294,42.39161-72.54213,63.56054-108.39105,9.46768-16.03323,33.69648-49.82061,34.97846-66.83497l.54652-89.67736c-22.87962,3.08954-25.33018-24.7177-3.13428-27.16769h128.4388c21.64161,2.18987,18.97978,30.20676-3.13432,27.16767.22047,17.62411-.27511,35.28452-.02038,52.91268.15885,10.99347-.21412,22.94629.59622,33.90722,1.52213,20.5888,20.55318,40.69753,29.28786,58.95039,5.63232,12.69645-10.47967,23.55912-20.25821,14.03632-12.2347-21.59891-32.87409-43.84416-34.51396-69.562l.02369-90.24169h-72.96628l.00004.00009Z"/>
  <path class="st0" d="M342.63292,321.6546c8.40666-.78382,21.91736-.51598,28.92302,4.67608,8.4875,6.29031,20.47035,31.2962,23.37794,41.66954,10.15553,36.23201-10.87722,61.47386-46.7908,64.93737l-191.76594-.02909c-48.28338-5.84311-60.01806-48.80146-36.38035-87.84095,15.93434-26.31683,41.42808-27.34557,68.62606-17.93667,25.61263,8.86046,51.06072,23.98304,79.20072,22.09342,26.53083-1.78157,47.95127-25.06554,74.80935-27.5697Z"/>
  <path class="st1" d="M385.53581,217.0422c10.8864,11.33877,5.32945,30.86518-9.96468,34.6063-10.05283,2.45904-18.31321-2.25439-23.04185-11.05922-14.48077.16192-29.18063,4.67421-42.58176,9.91709-32.52164,12.72331-59.79383,36.83766-97.00405,34.76884-1.55607-.0865-4.42384-1.29001-5.55463-1.02816-.4909.11369-5.45742,5.40877-7.57427,6.58395-12.11065,6.7233-28.24309-1.00735-29.57991-14.88428-2.21332-22.97526,27.41692-32.74729,38.55947-12.54056.73241,1.3282,1.432,4.72214,2.28487,5.09442,30.09639,5.12229,55.57709-15.86627,81.12345-27.82048,18.37271-8.59739,39.32792-15.81555,59.78636-16.00806.8069-.27741,2.63615-4.33459,3.53329-5.51681,7.18225-9.46483,21.66246-10.81129,30.01372-2.11302Z"/>
  <path class="st0" d="M235.71504,169.49148c26.26598-2.7697,29.49667,37.60395,3.79943,39.99258-26.90794,2.50118-29.32085-37.3014-3.79943-39.99258Z"/>
  <path class="st1" d="M271.3419,289.95718c22.92149-3.36347,27.63964,31.39985,4.3079,33.72105-24.15881,2.40347-23.56006-30.89599-4.3079-33.72105Z"/>
  <path class="st0" d="M244.17855,110.07405c26.69335-4.48278,25.4152,35.61424.68339,31.28837-17.4749-3.05656-16.37375-28.65337-.68339-31.28837Z"/>
</svg>